:SAMPLES-PER-SECOND 30
:FULLY-SPECIFIED
:DEGREES
187
root  115.799 11.7105 7.05716 -148.551 -25.287 -172.632
RightUpLeg  89.1677 2.25494 132.487
RightLeg  113.093 2.86584 22.5312
RightFoot  -28.466 0.443894 1.09673
RightToes  -4.65663e-010 -1.59028e-015 9.93923e-017
Spine  41.7481 9.34629 -42.7334
Spine1  0.550373 -7.47122 7.54547
HEad  -50.93 3.83791 3.93642
LeftShoulder1  9.93923e-017 0 1.22299e-017
LeftArm  83.6147 59.9474 -62.0439
LeftForeArm  -108.679 -37.7367 20.6501
LeftHand  10.4342 14.1764 90.7667
RightShoulder  1.98785e-016 -4.96962e-017 1.55301e-017
RightArm  -40.6389 -52.2257 66.2129
RightForeArm  -68.1381 45.3461 -32.5499
RightHand  4.0915 -11.652 -51.9706
LeftUpLeg  -73.7561 21.0043 30.342
LeftLeg  108.412 -26.7564 -118.216
LeftFoot  144.569 -40.4001 9.58118
LeftToes  3.34876e-009 -9.68256e-011 -6.12847e-011
188
root  114.973 9.31748 7.68485 -125.203 -38.5146 174.227
RightUpLeg  103.052 -6.0256 102.251
RightLeg  111.96 2.9202 14.3336
RightFoot  -19.2465 -2.14956 -4.50357
RightToes  -4.65663e-010 -1.59028e-015 9.93923e-017
Spine  21.1925 36.3645 -57.118
Spine1  14.6452 -1.67564 -3.96225
HEad  -57.6877 18.5372 10.804
LeftShoulder1  9.93923e-017 0 1.22299e-017
LeftArm  139.383 55.7926 -30.4998
LeftForeArm  -125.988 -39.3801 21.5616
LeftHand  8.23081 12.7017 87.8424
RightShoulder  1.98785e-016 -4.96962e-017 1.55301e-017
RightArm  -55.5053 -43.7843 71.6042
RightForeArm  -101.645 48.9462 -42.7058
RightHand  6.3124 -16.9727 -45.5435
LeftUpLeg  -71.3892 34.3513 19.2171
LeftLeg  133.843 -38.716 -142.829
LeftFoot  118.639 -27.2502 12.7652
LeftToes  3.34876e-009 -9.68256e-011 -6.12847e-011
189
root  114.483 7.77127 9.5849 -174.21 -38.7173 -160.234
RightUpLeg  83.2873 31.9526 64.4885
RightLeg  97.7573 -2.85881 73.3194
RightFoot  51.6445 27.0514 -34.8875
RightToes  -4.65663e-010 -1.59028e-015 9.93923e-017
Spine  54.6229 43.1069 -9.00077
Spine1  -2.21938 2.50847 -10.6665
HEad  -52.1284 17.6565 10.7133
LeftShoulder1  9.93923e-017 0 1.22299e-017
LeftArm  142.173 51.516 -25.3076
LeftForeArm  -126.068 -42.8862 23.3272
LeftHand  5.83662 11.4729 79.8118
RightShoulder  1.98785e-016 -4.96962e-017 1.55301e-017
RightArm  -42.1607 -42.5158 67.4636
RightForeArm  -98.5905 46.9093 -39.4547
RightHand  8.65654 -21.4686 -44.6851
LeftUpLeg  -33.3486 27.998 56.2592
LeftLeg  178.646 -22.993 178.973
LeftFoot  99.2505 -7.24703 4.57987
LeftToes  3.34876e-009 -9.68256e-011 -6.12847e-011
190
root  110.572 6.64873 10.3535 172.568 -35.7489 -155.596
RightUpLeg  -32.2486 35.8136 -91.898
RightLeg  86.8087 -24.9851 -127.196
RightFoot  52.7926 -16.9894 31.9344
RightToes  -4.65663e-010 -1.59028e-015 9.93923e-017
Spine  69.2036 41.0666 13.1829
Spine1  -13.5933 5.53764 -8.91448
HEad  -46.7273 10.4036 8.57243
LeftShoulder1  9.93923e-017 0 1.22299e-017
LeftArm  138.153 40.1394 -29.4156
LeftForeArm  -111.52 -47.283 25.7563
LeftHand  2.16846 8.40715 70.2251
RightShoulder  1.98785e-016 -4.96962e-017 1.55301e-017
RightArm  -30.4638 -46.2998 57.477
RightForeArm  -101.721 47.372 -39.9266
RightHand  9.29772 -22.4502 -45.2131
LeftUpLeg  -20.8297 24.6491 69.4185
LeftLeg  -169.781 -19.9453 169.87
LeftFoot  91.3497 -4.54401 4.0126
LeftToes  3.34876e-009 -9.68256e-011 -6.12847e-011
191
root  105.171 7.22605 9.9674 171.193 -33.4075 -157.538
RightUpLeg  10.3584 3.54883 -82.6713
RightLeg  51.8779 -57.3898 -51.2193
RightFoot  37.7849 -11.7423 23.8814
RightToes  -4.65663e-010 -1.59028e-015 9.93923e-017
Spine  71.1634 33.1207 25.2627
Spine1  -24.8145 9.23962 -6.83344
HEad  -40.6589 -0.0109628 5.16764
LeftShoulder1  9.93923e-017 0 1.22299e-017
LeftArm  111.374 27.0889 -38.0276
LeftForeArm  -64.6182 -35.0871 20.0435
LeftHand  -3.12576 1.49434 57.5414
RightShoulder  1.98785e-016 -4.96962e-017 1.55301e-017
RightArm  -17.6636 -53.5493 44.9725
RightForeArm  -105.804 50.1773 -43.444
RightHand  10.0143 -22.1438 -50.0989
LeftUpLeg  -28.1878 19.9831 73.1497
LeftLeg  167.816 -25.3899 -176.298
LeftFoot  100.636 -13.586 9.00315
LeftToes  3.34876e-009 -9.68256e-011 -6.12847e-011
192
root  102.215 6.04631 10.1927 167.281 -31.2878 -157.372
RightUpLeg  22.5958 23.3881 -78.1416
RightLeg  -18.0511 -67.3512 17.6049
RightFoot  18.1544 22.0929 -70.7072
RightToes  -4.65663e-010 -1.59028e-015 9.93923e-017
Spine  72.3007 30.4004 29.7708
Spine1  -33.5657 11.0921 -5.87966
HEad  -37.6642 -2.97466 4.17114
LeftShoulder1  9.93923e-017 0 1.22299e-017
LeftArm  101.245 22.5798 -39.6385
LeftForeArm  -51.194 -27.6877 18.2837
LeftHand  -6.05371 -3.88099 49.2704
RightShoulder  1.98785e-016 -4.96962e-017 1.55301e-017
RightArm  -11.3516 -55.6242 40.1993
RightForeArm  -106.275 50.2263 -43.5534
RightHand  10.3869 -22.029 -52.3985
LeftUpLeg  -19.9818 21.8845 74.3711
LeftLeg  -177.794 -15.9899 175.89
LeftFoot  95.2481 -9.36029 6.89973
LeftToes  3.34876e-009 -9.68256e-011 -6.12847e-011
193
root  98.253 4.00042 11.0831 162.988 -29.3944 -156.569
RightUpLeg  29.5655 51.2696 -65.8488
RightLeg  -143.623 -78.9566 144.915
RightFoot  -0.922142 15.5133 -103.542
RightToes  -4.65663e-010 -1.59028e-015 9.93923e-017
Spine  74.2696 29.665 32.2718
Spine1  -40.4324 12.7738 -5.91696
HEad  -36.0159 -4.03102 3.62901
LeftShoulder1  9.93923e-017 0 1.22299e-017
LeftArm  85.162 19.2343 -39.9399
LeftForeArm  -36.2706 -24.6324 11.8791
LeftHand  -7.59228 -8.51924 41.816
RightShoulder  1.98785e-016 -4.96962e-017 1.55301e-017
RightArm  -8.18266 -56.0056 37.7137
RightForeArm  -105.372 48.8683 -41.7005
RightHand  10.2186 -21.5456 -53.1699
LeftUpLeg  -16.2469 22.5167 75.4847
LeftLeg  -172.186 -10.0337 173
LeftFoot  92.9552 -7.27113 5.76528
LeftToes  3.34876e-009 -9.68256e-011 -6.12847e-011
194
root  92.4759 1.90916 12.1358 159.192 -28.2983 -155.84
RightUpLeg  88.728 72.0248 -0.931429
RightLeg  -167.134 -60.0199 169.842
RightFoot  0.805402 17.9874 -104.579
RightToes  -4.65663e-010 -1.59028e-015 9.93923e-017
Spine  76.1756 28.7357 34.7907
Spine1  -46.1588 14.8338 -7.01796
HEad  -34.4882 -5.47784 2.81734
LeftShoulder1  9.93923e-017 0 1.22299e-017
LeftArm  50.3356 14.7589 -40.4871
LeftForeArm  -3.38664 -18.2653 0.658549
LeftHand  -8.12899 -13.0536 33.0079
RightShoulder  1.98785e-016 -4.96962e-017 1.55301e-017
RightArm  -5.44184 -56.3883 35.0953
RightForeArm  -104.565 47.0844 -39.4614
RightHand  9.76877 -20.7168 -53.6692
LeftUpLeg  -15.3125 21.4449 76.4993
LeftLeg  -172.823 -6.87325 173.883
LeftFoot  93.8072 -7.01459 5.47422
LeftToes  3.34876e-009 -9.68256e-011 -6.12847e-011
